<svg xmlns="http://www.w3.org/2000/svg" width="512" height="499.805" viewBox="0 0 512 499.805">
  <g id="gear" transform="translate(0 -6.097)">
    <g id="Group_5" data-name="Group 5">
      <g id="Group_4" data-name="Group 4">
        <path id="Path_1" data-name="Path 1" d="M453.584,237.313a195.957,195.957,0,0,0-12.335-54.508L487.39,145.85,412.411,52.228,366.55,88.953a195.844,195.844,0,0,0-51.119-24.58V6.1H195.48V64.753a195.65,195.65,0,0,0-53.228,26.529L95.911,55.267,22.3,149.978l47.161,36.645a196.271,196.271,0,0,0-11.195,54.458L0,255.025,27.909,371.677,68.9,361.871,131.3,299.477C99.435,213.006,163.487,120.57,256.085,120.57A132.95,132.95,0,0,1,389.03,253.515c0,90.681-88.981,154.709-174.778,126.218l-88.884,88.884,79.1,37.285,26.309-55.817a198.6,198.6,0,0,0,54.128-.45l26.949,55.077L419.6,451.994l-26.879-54.937a197.138,197.138,0,0,0,34.056-42.832L485.8,367.44,512,250.387Z" fill="#fafafa"/>
      </g>
    </g>
    <g id="Group_7" data-name="Group 7">
      <g id="Group_6" data-name="Group 6">
        <path id="Path_2" data-name="Path 2" d="M341.29,219.06l-8.417-21.171-50.649,50.639-22.751-22.751,50.649-50.639-21.171-8.427c-82.867-32.961-159.477,57.7-115.992,133.505C61.094,412.082,156.7,316.491,22.3,450.885L61.5,490.079c78.071-78.071,2.238-2.227,152.058-152.048C290.032,375.121,372.837,298.314,341.29,219.06Z" fill="#fafafa"/>
      </g>
    </g>
  </g>
</svg>
